<?xml version="1.0" standalone="no"?>
<!DOCTYPE svg PUBLIC "-//W3C//DTD SVG 20010904//EN"
 "http://www.w3.org/TR/2001/REC-SVG-20010904/DTD/svg10.dtd">
<svg version="1.0" xmlns="http://www.w3.org/2000/svg"
 width="16.000000pt" height="16.000000pt" viewBox="0 0 16.000000 16.000000"
 preserveAspectRatio="xMidYMid meet">

<g transform="translate(0.000000,16.000000) scale(0.100000,-0.100000)"
fill="#000000" stroke="none">
<path d="M16 144 c-16 -15 -21 -69 -10 -98 12 -32 19 -15 16 39 l-4 55 56 0
c46 0 56 -3 57 -17 0 -12 2 -13 6 -5 15 38 -87 60 -121 26z"/>
<path d="M70 95 c-5 -6 -13 -26 -16 -43 -6 -29 -4 -31 32 -41 29 -8 41 -8 50
2 19 20 25 64 11 75 -20 16 -66 20 -77 7z m59 -14 c22 -14 6 -61 -22 -61 -34
0 -46 12 -40 43 6 28 33 36 62 18z"/>
</g>
</svg>
